HIERARCHY
ROOT Hips
{
	OFFSET	0.00	0.00	0.00
	CHANNELS 6 Xposition Yposition Zposition Zrotation Xrotation Yrotation
	JOINT Spine
	{
		OFFSET	 0.00	0.01	 0.00
		CHANNELS 3 Zrotation Xrotation Yrotation
		JOINT Spine1
		{
			OFFSET	 0.00	 2.45913012437421	 0.00
			CHANNELS 3 Zrotation Xrotation Yrotation
            JOINT Neck
            {
                OFFSET	 0.00	 2.48462964506057	 0.00
                CHANNELS 3 Zrotation Xrotation Yrotation
                JOINT Head
                {
                    OFFSET	 0.00	 0.927524780924562	 0.00
                    CHANNELS 3 Zrotation Xrotation Yrotation
                    End Site 
                    {
                        OFFSET	 0.00	 1.14999962169752	 0.00
                    }
                }
            }
			JOINT LeftShoulder
			{
				OFFSET	 0.00	 2.48462964506057	 0.00
				CHANNELS 3 Zrotation Xrotation Yrotation
				JOINT LeftUpArm
				{
					OFFSET	 0.00	 1.24881979654096	 0.00
					CHANNELS 3 Zrotation Xrotation Yrotation
					JOINT LeftForeArm
					{
						OFFSET	 0.00	2.59758046908119	 0.00
						CHANNELS 3 Zrotation Xrotation Yrotation
						JOINT LeftHand
						{
							OFFSET	 0.00	2.45542024364365	 0.00
							CHANNELS 3 Zrotation Xrotation Yrotation
							JOINT LeftHandThumb 
							{
								OFFSET	 0.00	0.00	 0.00
								CHANNELS 3 Zrotation Xrotation Yrotation
								End Site
								{
									OFFSET	 0.00	0.00	1.00000003353624
								}
							}
							JOINT L_Wrist_End 
							{
								OFFSET	 0.00	0.99999967115358	 0.00
								CHANNELS 3 Zrotation Xrotation Yrotation
								End Site 
								{
									OFFSET	 0.00	 0.00	 0.00
								}
							}
						}
					}
				}
			}
			JOINT RightShoulder
			{
				OFFSET	 0.00	 2.48462964506057	 0.00
				CHANNELS 3 Zrotation Xrotation Yrotation
				JOINT RightUpArm
				{
					OFFSET	 0.00	 1.24881979654096	 0.00
					CHANNELS 3 Zrotation Xrotation Yrotation
					JOINT RightForeArm
					{
						OFFSET	 0.00	2.59758046908119	 0.00
						CHANNELS 3 Zrotation Xrotation Yrotation
						JOINT RightHand
						{
							OFFSET	 0.00	2.45542024364365	 0.00
							CHANNELS 3 Zrotation Xrotation Yrotation
							JOINT RightHandThumb 
							{
								OFFSET	 0.00	0.00	 0.00
								CHANNELS 3 Zrotation Xrotation Yrotation
								End Site
								{
									OFFSET	 0.00	0.00	1.00000003353624
								}
							}
							JOINT R_Wrist_End 
							{
								OFFSET	 0.00	0.99999967115358	 0.00
								CHANNELS 3 Zrotation Xrotation Yrotation
								End Site 
								{
									OFFSET	 0.00	 0.00	 0.00
								}
							}
						}
					}
				}
			}
		}
	}
	JOINT LeftUpLeg
	{
		OFFSET	 1.2719394002717	 0.00	 0.00
		CHANNELS 3 Zrotation Xrotation Yrotation
		JOINT LeftLowLeg
		{
			OFFSET	 0.00	-4.3429100912261	 0.00
			CHANNELS 3 Zrotation Xrotation Yrotation
			JOINT LeftFoot
			{
				OFFSET	 0.00	-4.48767017425826	 0.00
				CHANNELS 3 Zrotation Xrotation Yrotation
				JOINT LeftToeBase
                {
                    OFFSET	 0.00	0.00	 1.51507020887566
                    CHANNELS 3 Zrotation Xrotation Yrotation
                    End Site 
                    {
                        OFFSET	 0.00	0.00	 0.75000010571191
                    }
                }
			}
		}
	}
	JOINT RightUpLeg
	{
		OFFSET	 -1.2719393604653	 0.00	 0.00
		CHANNELS 3 Zrotation Xrotation Yrotation
		JOINT RightLowLeg
		{
			OFFSET	 0.00	-4.3429100912261	 0.00
			CHANNELS 3 Zrotation Xrotation Yrotation
			JOINT RightFoot
			{
				OFFSET	 0.00	-4.48767017425826	 0.00
				CHANNELS 3 Zrotation Xrotation Yrotation
				JOINT RightToeBase
                {
                    OFFSET	 0.00	0.00	 1.51507020887566
                    CHANNELS 3 Zrotation Xrotation Yrotation
                    End Site 
                    {
                        OFFSET	 0.00	0.00	 0.749999965609858
                    }
                }   
			}
		}
	}
}
MOTION 
Frames:	10 
Frame Time: 0.02 
 3.0571600341796876 4.115929870605469 9.824010009765624 -147.312 81.5136 151.365 3.07871 -9.47693 -1.96757 0.791148 4.73111 -2.37375 -3.45397 28.2727 4.34554 13.0684 -54.5337 10.6989 -91.62787 -11.9077 -2.7163 -12.4114 1.9023 -28.2805 0.0 19.9143 0.0 29.4182 -8.86201 28.6526 0.0 0.0 0.0 0.0 0.0 0.0 98.0421 -10.0844 -0.637899 9.64757 0.124599 33.9247 0.0 18.3716 0.0 -17.2981 -1.46744 -25.9854 0.0 0.0 0.0 0.0 0.0 0.0 5.71521 -6.28845 -4.07089 0.0 8.02283 0.0 9.33729 5.2094097 2.41075 0.0 -32.5099 0.0 4.30956 -4.15308 5.72248 0.0 6.26662 0.0 7.84917 9.74124 -8.11156 0.0 -27.4287 0.0 
  3.0573599243164065 4.115320129394531 9.82427978515625 -147.35 81.5059 151.396 3.0843 -9.46902 -1.95849 0.792209 4.76745 -2.36633 -3.52968 28.2848 4.45677 13.1505 -54.6347 10.7813 -91.63999 -11.9519 -2.7472 -12.3888 1.91721 -28.2892 0.0 19.9556 0.0 29.4062 -8.85 28.5862 0.0 0.0 0.0 0.0 0.0 0.0 98.05866 -10.0959 -0.631694 9.62584 0.123087 33.8762 0.0 18.3787 0.0 -17.2507 -1.42608 -25.9689 0.0 0.0 0.0 0.0 0.0 0.0 5.71312 -6.2839 -4.07517 0.0 8.00577 0.0 9.33748 5.2247496 2.4223 0.0 -32.5188 0.0 4.30762 -4.15326 5.72105 0.0 6.25414 0.0 7.83971 9.752911 -8.10886 0.0 -27.4272 0.0 
  3.0574700927734373 4.114339904785156 9.824199829101563 -147.415 81.4863 151.461 3.11382 -9.47321 -1.92974 0.74865 4.77155 -2.34513 -3.43599 28.2353 4.33784 13.0871 -54.5878 10.7556 -91.59697 -11.9136 -2.75735 -12.3956 1.87541 -28.2983 0.0 19.9806 0.0 29.3867 -8.81615 28.5703 0.0 0.0 0.0 0.0 0.0 0.0 98.05712 -10.1339 -0.649212 9.65378 0.109149 33.8418 0.0 18.4139 0.0 -17.2111 -1.43685 -25.936 0.0 0.0 0.0 0.0 0.0 0.0 5.71345 -6.28949 -4.07784 0.0 7.98631 0.0 9.33706 5.2260303 2.4284 0.0 -32.5175 0.0 4.30699 -4.15831 5.73316 0.0 6.23328 0.0 7.85184 9.7542 -8.11791 0.0 -27.4118 0.0 
  3.0578298950195313 4.113529968261719 9.824210205078124 -147.498 81.4678 151.542 3.12976 -9.4878 -1.91861 0.72833 4.8048 -2.33837 -3.42394 28.1959 4.33113 13.0906 -54.5899 10.7633 -91.56575 -11.9223 -2.74328 -12.4055 1.86834 -28.3241 0.0 19.9769 0.0 29.3542 -8.79288 28.4643 0.0 0.0 0.0 0.0 0.0 0.0 98.05658 -10.1271 -0.653042 9.67966 0.0964338 33.9044 0.0 18.4235 0.0 -17.2272 -1.41432 -25.9032 0.0 0.0 0.0 0.0 0.0 0.0 5.71006 -6.29223 -4.08155 0.0 7.95906 0.0 9.33279 5.2332096 2.43685 0.0 -32.5111 0.0 4.30089 -4.15809 5.72066 0.0 6.19871 0.0 7.84886 9.76619 -8.10522 0.0 -27.4196 0.0 
  3.0579598999023436 4.112510070800782 9.824249877929688 -147.594 81.4422 151.642 3.15399 -9.49984 -1.89783 0.686972 4.80181 -2.32382 -3.39991 28.2062 4.31333 13.1323 -54.596 10.7724 -91.52904 -11.9094 -2.73876 -12.3958 1.87485 -28.3183 0.0 19.9396 0.0 29.382 -8.78694 28.4918 0.0 0.0 0.0 0.0 0.0 0.0 98.08314 -10.1584 -0.661802 9.66479 0.115143 33.8848 0.0 18.3838 0.0 -17.244 -1.38951 -25.8339 0.0 0.0 0.0 0.0 0.0 0.0 5.70792 -6.30882 -4.08566 0.0 7.94336 0.0 9.34507 5.2416096 2.44775 0.0 -32.5233 0.0 4.29836 -4.16 5.68503 0.0 6.15776 0.0 7.83645 9.78252 -8.08641 0.0 -27.4194 0.0 
  3.0581298828125 4.111929931640625 9.824290161132813 -147.734 81.4111 151.79 3.17236 -9.51792 -1.88465 0.650681 4.79209 -2.31537 -3.37967 28.2274 4.29723 13.159 -54.5921 10.7796 -91.48969 -11.9006 -2.73075 -12.3986 1.87229 -28.2781 0.0 19.933 0.0 29.456 -8.85988 28.6232 0.0 0.0 0.0 0.0 0.0 0.0 98.10243 -10.1738 -0.649454 9.65776 0.103886 33.8575 0.0 18.3766 0.0 -17.2381 -1.32158 -26.3457 0.0 0.0 0.0 0.0 0.0 0.0 5.70349 -6.34331 -4.07958 0.0 7.93954 0.0 9.34556 5.24617 2.43384 0.0 -32.522102 0.0 4.29343 -4.18629 5.64694 0.0 6.14496 0.0 7.82022 9.78488 -8.06924 0.0 -27.4141 0.0 
  3.0580099487304686 4.111130065917969 9.8243701171875 -147.851 81.3831 151.898 3.16208 -9.53728 -1.87842 0.672542 4.793 -2.30604 -3.40587 28.2357 4.33448 13.1714 -54.5645 10.7657 -91.48181 -11.9187 -2.74573 -12.4232 1.87398 -28.3177 0.0 19.9662 0.0 29.4828 -8.93763 28.6557 0.0 0.0 0.0 0.0 0.0 0.0 98.10945 -10.1688 -0.638458 9.62786 0.121874 33.9327 0.0 18.3284 0.0 -17.1952 -1.25892 -26.4735 0.0 0.0 0.0 0.0 0.0 0.0 5.7046 -6.35993 -4.04928 0.0 7.92102 0.0 9.35167 5.25037 2.42082 0.0 -32.5253 0.0 4.29144 -4.21929 5.63821 0.0 6.15183 0.0 7.8119 9.78797 -8.04745 0.0 -27.4175 0.0 
  3.0581298828125 4.110230102539062 9.82448974609375 -147.928 81.3634 151.975 3.16215 -9.55015 -1.87826 0.679865 4.78373 -2.30566 -3.41145 28.2782 4.34447 13.173 -54.5458 10.7713 -91.48122 -11.9169 -2.74294 -12.4323 1.85096 -28.3793 0.0 20.0032 0.0 29.4314 -8.93952 28.6322 0.0 0.0 0.0 0.0 0.0 0.0 98.10746 -10.1536 -0.655468 9.61967 0.115853 33.9564 0.0 18.3468 0.0 -17.231 -1.28891 -26.4615 0.0 0.0 0.0 0.0 0.0 0.0 5.7035 -6.37242 -4.04086 0.0 7.91128 0.0 9.35101 5.2524996 2.41427 0.0 -32.513702 0.0 4.28846 -4.23679 5.62449 0.0 6.15147 0.0 7.8212 9.790131 -8.03 0.0 -27.431599 0.0 
  3.0582699584960937 4.109320068359375 9.824520263671875 -147.962 81.3482 152.016 3.1706 -9.56411 -1.87363 0.674604 4.78917 -2.30319 -3.4218 28.302 4.36527 13.1885 -54.5088 10.7597 -91.48094 -11.9256 -2.72754 -12.4321 1.86648 -28.3832 0.0 20.03 0.0 29.432 -8.94205 28.4821 0.0 0.0 0.0 0.0 0.0 0.0 98.11251 -10.1692 -0.666497 9.6221 0.144566 34.0465 0.0 18.3677 0.0 -17.2174 -1.29754 -26.5252 0.0 0.0 0.0 0.0 0.0 0.0 5.70667 -6.37458 -4.02234 0.0 7.89112 0.0 9.3573 5.2538204 2.39658 0.0 -32.524902 0.0 4.29004 -4.24406 5.64191 0.0 6.1462 0.0 7.83736 9.78437 -8.04799 0.0 -27.3999 0.0 
  3.0585501098632815 4.108240051269531 9.824530029296875 -147.961 81.3382 152.026 3.18187 -9.57203 -1.87243 0.667541 4.7859 -2.30491 -3.41704 28.3537 4.36251 13.1975 -54.4968 10.768 -91.48803 -11.9209 -2.73289 -12.4193 1.86774 -28.3525 0.0 20.0319 0.0 29.4791 -8.90771 28.5142 0.0 0.0 0.0 0.0 0.0 0.0 98.10834 -10.1874 -0.649729 9.63974 0.175536 34.0264 0.0 18.3995 0.0 -17.1506 -1.35083 -25.8845 0.0 0.0 0.0 0.0 0.0 0.0 5.7095 -6.37743 -4.01487 0.0 7.8877 0.0 9.36496 5.25047 2.38488 0.0 -32.5331 0.0 4.29376 -4.23057 5.65314 0.0 6.11786 0.0 7.83986 9.79206 -8.07654 0.0 -27.4062 0.0 
